<?xml version="1.0" encoding="UTF-8" standalone="no"?>
<!-- Created with Inkscape (http://www.inkscape.org/) -->

<svg
   xmlns:dc="http://purl.org/dc/elements/1.1/"
   xmlns:cc="http://creativecommons.org/ns#"
   xmlns:rdf="http://www.w3.org/1999/02/22-rdf-syntax-ns#"
   xmlns:svg="http://www.w3.org/2000/svg"
   xmlns="http://www.w3.org/2000/svg"
   xmlns:sodipodi="http://sodipodi.sourceforge.net/DTD/sodipodi-0.dtd"
   xmlns:inkscape="http://www.inkscape.org/namespaces/inkscape"
   width="500"
   height="500"
   id="svg3862"
   version="1.1"
   inkscape:version="0.48.0 r9654"
   sodipodi:docname="zdc-symbol.svg">
  <defs
     id="defs3864" />
  <sodipodi:namedview
     id="base"
     pagecolor="#ffffff"
     bordercolor="#666666"
     borderopacity="1.0"
     inkscape:pageopacity="0.0"
     inkscape:pageshadow="2"
     inkscape:zoom="0.98994949"
     inkscape:cx="210.92086"
     inkscape:cy="283.56901"
     inkscape:document-units="px"
     inkscape:current-layer="layer1"
     showgrid="false"
     inkscape:window-width="1280"
     inkscape:window-height="962"
     inkscape:window-x="-8"
     inkscape:window-y="-8"
     inkscape:window-maximized="1" />
  <metadata
     id="metadata3867">
    <rdf:RDF>
      <cc:Work
         rdf:about="">
        <dc:format>image/svg+xml</dc:format>
        <dc:type
           rdf:resource="http://purl.org/dc/dcmitype/StillImage" />
        <dc:title></dc:title>
      </cc:Work>
    </rdf:RDF>
  </metadata>
  <g
     inkscape:label="Layer 1"
     inkscape:groupmode="layer"
     id="layer1"
     transform="translate(0,-552.36218)">
    <path
       style="fill:none;stroke:#000000;stroke-width:10;stroke-linecap:square;stroke-linejoin:round;stroke-miterlimit:4;stroke-opacity:1;stroke-dasharray:none"
       inkscape:transform-center-y="-62.31249"
       d="m 463.34419,983.40573 -215.85682,0 -215.856822,-10e-6 L 139.55896,796.46823 247.48737,609.53074 355.41578,796.46823 z"
       id="path3870"
       inkscape:connector-curvature="0" />
    <path
       style="fill:#000000;fill-opacity:1;stroke:none;opacity:0.35"
       d="m 275.90296,719.80556 c -0.22427,0.46007 -0.46035,0.91341 -0.71332,1.36178 16.37249,10.47881 27.23572,29.05407 27.23572,50.19154 0,14.98703 -5.47639,28.67448 -14.4933,39.10271 -11.28826,-12.10419 -27.37068,-19.68105 -45.23074,-19.68105 -16.99746,0 -32.36666,6.86688 -43.54473,17.9626 -8.1596,-10.19157 -13.06666,-23.20902 -13.06666,-37.38426 0,-19.53232 9.30999,-36.87023 23.63672,-47.66251 -0.50657,-0.70128 -0.99479,-1.40357 -1.42664,-2.13995 -21.40708,12.2955 -35.82793,35.37568 -35.82793,61.83157 0,15.83097 5.17586,30.45116 13.90967,42.28021 -12.87471,-1.01514 -26.19129,1.43695 -38.48666,7.84648 -24.63708,12.84321 -38.60107,38.06892 -38.29212,64.06878 0.51163,-0.0138 1.00938,-0.0171 1.5239,0 1.72375,-19.36215 13.19356,-37.59975 31.93713,-47.37069 12.3089,-6.41658 25.77771,-8.1389 38.35695,-5.83623 -0.35688,2.68716 -0.55119,5.41816 -0.55119,8.20314 0,28.99362 19.95502,53.33303 46.88434,60.01585 -3.45402,16.8434 -14.31978,32.12886 -30.932,40.78873 -17.32019,9.02896 -36.98186,8.78535 -53.17448,1.06997 -0.3877,0.77337 -0.77876,1.54632 -1.23209,2.26965 20.79854,13.29897 47.9044,15.40692 71.36405,3.1775 12.01968,-6.26581 21.51677,-15.48173 28.04631,-26.29544 6.5318,12.12674 16.63156,22.46456 29.76474,29.31082 23.45966,12.22941 50.59794,10.12152 71.39649,-3.1775 -0.45333,-0.72328 -0.84439,-1.46383 -1.23209,-2.23722 -16.19263,7.71544 -35.88673,7.959 -53.20692,-1.06997 -17.57778,-9.16324 -28.71263,-25.74488 -31.45077,-43.73927 27.2013,-6.49013 47.43554,-30.92652 47.43554,-60.11312 0,-1.75983 -0.0828,-3.49772 -0.22696,-5.22018 12.48399,-2.20541 25.8399,-0.455 38.03273,5.90107 18.74357,9.77094 30.18095,27.97613 31.9047,47.33827 0.51452,-0.0171 1.0447,-0.0138 1.55633,0 0.30895,-25.99985 -13.68746,-51.22557 -38.32455,-64.06878 -12.0611,-6.2874 -25.09585,-8.74566 -37.74092,-7.8789 -0.11039,-0.26256 -0.24277,-0.51747 -0.35666,-0.77817 9.76191,-12.19479 15.62811,-27.6507 15.62811,-44.485 0,-27.7837 -15.90463,-51.83778 -39.1027,-63.58243 z m -33.20164,79.27539 c 15.32221,0 29.06579,6.96847 38.48666,18.02745 -10.04459,8.41006 -22.90783,13.45574 -36.93033,13.45574 -14.85354,0 -28.40141,-5.65545 -38.68121,-14.97964 9.3609,-10.16893 22.52096,-16.50355 37.12488,-16.50355 z m -0.48635,38.84332 c 10.70856,0 19.38923,8.68067 19.38923,19.38924 0,10.70856 -8.68067,19.38923 -19.38923,19.38923 -10.70857,0 -19.38924,-8.68067 -19.38924,-19.38923 0,-10.70857 8.68067,-19.38924 19.38924,-19.38924 z m -50.67789,9.24069 c 12.90001,4.83779 24.08195,14.18993 30.89957,27.26814 4.93954,9.47552 6.94759,19.70355 6.38742,29.6999 -21.65659,-6.30724 -37.54638,-27.00136 -37.54638,-51.55332 0,-1.82553 0.0879,-3.63637 0.25939,-5.41472 z m 102.52302,2.95054 c 0.0356,0.81678 0.0648,1.63823 0.0648,2.46418 0,24.60006 -15.95443,45.32268 -37.67608,51.58575 -0.0332,-9.02617 2.04133,-18.16083 6.4847,-26.68452 6.85817,-13.15603 18.12176,-22.55301 31.12653,-27.36541 z"
       id="path4405"
       inkscape:connector-curvature="0" />
    <path
       style="fill:#000000;fill-opacity:1;stroke:#ffffff;stroke-width:2;stroke-linejoin:round;stroke-miterlimit:4;stroke-opacity:1;stroke-dasharray:none"
       d="m 250.54726,731.25398 c -3.8591,0.0947 -8.50459,3.04426 -11.15625,7.96875 -3.53553,6.56599 0.0109,41.41212 2.03125,43.9375 2.0203,2.52538 2.02538,7.05235 -0.5,8.0625 -2.52538,1.01016 -4.05235,8.58947 -5.0625,12.125 -1.01015,3.53554 6.5625,13.15625 6.5625,13.15625 0,0 3.54298,5.04648 8.59375,3.53125 5.05076,-1.51523 5.56758,-13.12579 5.0625,-16.15625 -0.38877,-2.3326 -3.76429,-12.14212 -5.53125,-15.15625 2.2723,-1.00357 7.41559,-6.39722 7.03125,-10.625 -0.50508,-5.55584 -0.005,-14.63674 0.5,-19.6875 0.50508,-5.05077 0.009,-23.75587 -4.03125,-26.28125 -1.01015,-0.63135 -2.21363,-0.90657 -3.5,-0.875 z m -56.90625,16.34375 c -4.21521,0.26879 -8.15356,3.85141 -9.78125,6.78125 -2.52538,4.54568 -0.0102,19.18321 1,22.71875 1.01016,3.53553 1.0211,11.61056 2.03125,16.15625 1.01015,4.54568 3.51602,4.53791 5.03125,10.09375 1.51523,5.55584 0.016,14.65705 1.53125,17.6875 1.51523,3.03046 13.625,13.625 13.625,13.625 0,0 0.41078,-0.14492 0.53125,-0.1875 -3.04469,3.91302 -5.59375,8.70756 -5.59375,12.84375 2.52538,17.17259 6.06757,14.62151 5.5625,21.1875 -0.50508,6.56599 -6.56329,12.63087 -9.59375,15.15625 -3.03046,2.52538 -0.006,4.04806 -2.53125,8.59375 -2.52538,4.54568 -14.13516,6.07503 -13.125,14.15625 1.01015,8.08122 3.54378,30.79299 11.625,35.84375 8.08122,5.05076 33.82503,14.64372 41.90625,6.5625 8.08122,-8.08122 4.56678,-29.80822 1.03125,-33.34375 -3.53553,-3.53554 -16.67497,-11.10707 -8.59375,-22.21875 8.08122,-11.11168 9.09534,-18.6875 15.15625,-18.6875 6.06092,0 12.6047,2.54299 14.625,7.59375 2.02031,5.05077 8.10152,15.65863 -2,24.75 -10.10153,9.09137 -9.58867,29.28204 -10.09375,32.3125 -0.50507,3.03046 5.02427,23.73319 18.15625,19.1875 13.13198,-4.54569 20.73477,-11.59533 22.25,-17.65625 1.51522,-6.06092 16.66132,-47.00079 16.15625,-50.03125 -0.50508,-3.03046 1.51016,-15.65705 0.5,-18.6875 -1.01015,-3.03046 -8.06837,-7.05314 -10.59375,-11.09375 -2.52538,-4.04061 -7.58946,-10.09375 -11.125,-10.09375 -3.53553,0 -14.65704,2.50936 -17.6875,-1.53125 -3.03045,-4.04061 0.5211,-3.52189 1.53125,-7.5625 1.01015,-4.04061 -15.66798,-8.1039 -20.71875,-7.09375 -5.05076,1.01016 -9.60548,2.52538 -14.65625,0 -4.69755,-2.34878 -9.36555,-4.68247 -11.625,-7.03125 0.45965,-0.64951 0.83466,-1.31041 1.03125,-2.03125 1.51523,-5.55584 -1.00079,-13.65704 -4.03125,-16.6875 -3.03046,-3.03045 -5.0625,-13.14181 -5.0625,-17.6875 0,-4.54568 -4.55235,-10.09533 -5.5625,-16.15625 -1.01015,-6.06091 2.02966,-17.17893 -4.03125,-24.25 -1.89404,-2.20971 -3.97383,-3.12688 -6.03125,-3.21875 -0.2829,-0.0126 -0.56274,-0.0179 -0.84375,0 z m 114.09375,4.5625 c -0.67672,9.9e-4 -1.39864,0.0612 -2.15625,0.1875 -6.06091,1.01015 -12.13008,11.61643 -11.625,18.6875 0.50508,7.07107 -3.03712,20.69924 -5.5625,25.75 -2.52538,5.05077 -12.12579,14.13753 -15.15625,22.21875 0.50508,6.06091 5.56916,17.19765 11.125,16.1875 5.55584,-1.01015 13.63595,-18.71018 15.65625,-25.78125 2.02031,-7.07107 3.02696,-19.68322 6.5625,-23.21875 3.53553,-3.53553 8.59375,-18.68401 8.59375,-25.25 0,-5.74524 -2.70043,-8.78815 -7.4375,-8.78125 z m 28.96875,53.71875 c -3.68807,0.16006 -7.65958,4.12135 -10.4375,7.59375 -6.56599,4.54569 -3.00587,11.09455 -5.53125,14.125 -2.52538,3.03046 -4.05235,5.55821 -5.0625,9.09375 -1.01015,3.53553 0.51174,9.60898 5.5625,8.09375 5.05076,-1.51523 6.05742,-6.58439 6.5625,-10.625 0.50508,-4.04061 5.04806,-3.03204 9.59375,-6.0625 4.54569,-3.03046 8.57694,-13.62659 4.03125,-19.6875 -1.42053,-1.89404 -3.04236,-2.604 -4.71875,-2.53125 z m -203.875,45.09375 c -4.0199,0.074 -7.5625,1.24953 -7.5625,4.40625 0,5.05076 9.60469,11.10549 11.625,16.15625 2.0203,5.05076 8.58439,13.15117 12.625,13.65625 4.04061,0.50508 9.0836,-1.02776 10.09375,-7.59375 1.01015,-6.566 0,-6.5625 0,-6.5625 -3.53553,-12.6269 -14.16291,-17.67228 -19.71875,-19.1875 -2.08344,-0.56821 -4.65056,-0.91939 -7.0625,-0.875 z"
       id="path4531"
       inkscape:connector-curvature="0" />
  </g>
</svg>
