<?xml version="1.0" encoding="UTF-8" standalone="no"?>
<!-- Created with Inkscape (http://www.inkscape.org/) -->

<svg
   xmlns:dc="http://purl.org/dc/elements/1.1/"
   xmlns:cc="http://creativecommons.org/ns#"
   xmlns:rdf="http://www.w3.org/1999/02/22-rdf-syntax-ns#"
   xmlns:svg="http://www.w3.org/2000/svg"
   xmlns="http://www.w3.org/2000/svg"
   xmlns:sodipodi="http://sodipodi.sourceforge.net/DTD/sodipodi-0.dtd"
   xmlns:inkscape="http://www.inkscape.org/namespaces/inkscape"
   width="1000"
   height="600"
   id="svg2"
   version="1.1"
   inkscape:version="0.48.0 r9654"
   sodipodi:docname="New document 1">
  <defs
     id="defs4" />
  <sodipodi:namedview
     id="base"
     pagecolor="#ffffff"
     bordercolor="#666666"
     borderopacity="1.0"
     inkscape:pageopacity="0.0"
     inkscape:pageshadow="2"
     inkscape:zoom="0.39183311"
     inkscape:cx="644.39498"
     inkscape:cy="69.516237"
     inkscape:document-units="px"
     inkscape:current-layer="layer1"
     showgrid="false"
     showguides="false"
     inkscape:guide-bbox="true"
     inkscape:window-width="1280"
     inkscape:window-height="962"
     inkscape:window-x="-8"
     inkscape:window-y="-8"
     inkscape:window-maximized="1">
    <sodipodi:guide
       orientation="0,1"
       position="235.71429,185.71429"
       id="guide3007" />
    <sodipodi:guide
       orientation="1,0"
       position="749.53319,162.63456"
       id="guide3817" />
    <sodipodi:guide
       orientation="0,1"
       position="562.65497,422.24376"
       id="guide3819" />
    <sodipodi:guide
       orientation="0,1"
       position="496.99505,266.68027"
       id="guide3821" />
    <sodipodi:guide
       orientation="1,0"
       position="698.01541,338.4011"
       id="guide3823" />
    <sodipodi:guide
       orientation="0,1"
       position="424.26407,505.07627"
       id="guide3825" />
    <sodipodi:guide
       orientation="1,0"
       position="557.60421,335.37065"
       id="guide3827" />
    <sodipodi:guide
       orientation="1,0"
       position="631.34534,299.00515"
       id="guide3829" />
    <sodipodi:guide
       orientation="1,0"
       position="353.55339,341.43156"
       id="guide3833" />
  </sodipodi:namedview>
  <metadata
     id="metadata7">
    <rdf:RDF>
      <cc:Work
         rdf:about="">
        <dc:format>image/svg+xml</dc:format>
        <dc:type
           rdf:resource="http://purl.org/dc/dcmitype/StillImage" />
        <dc:title></dc:title>
      </cc:Work>
    </rdf:RDF>
  </metadata>
  <g
     inkscape:label="Layer 1"
     inkscape:groupmode="layer"
     id="layer1"
     transform="translate(0,-452.36218)">
    <path
       style="fill:#000000;fill-opacity:1;fill-rule:evenodd;stroke:none"
       d="m 761.88063,517.54338 c -78.67484,1.32929 -126.73997,34.7309 -156.13013,75.43731 -40.0303,-40.92947 -108.1053,-74.2746 -223.80047,-74.2746 l -327.422151,0 -1.069703,122.78331 197.243944,0 -197.243944,231.19537 0,120.13236 348.676674,0 c 100.62037,0 162.5187,-31.71415 200.54606,-72.55378 30.15206,40.82729 80.45762,72.55378 164.08314,72.55378 181.91044,0 182.87267,-179.10556 182.87267,-179.10556 l -106.17961,1.48829 c 0,0 13.51048,57.11285 -76.69306,57.11285 -111.13016,0 -102.97054,-118.73704 -102.97054,-118.73704 0,0 -8.15962,-112.78391 102.97054,-112.78391 90.20355,0 76.69306,72.1817 76.69306,72.1817 l 106.17961,-1.53479 c 0,0 2.30912,-74.07886 -42.09044,-130.87584 -26.71683,-34.17678 -71.313,-63.01945 -140.78223,-63.01945 -1.64432,0 -3.26508,-0.0274 -4.88342,0 z M 406.78574,642.88466 c 44.85104,-0.42014 147.38647,9.34164 147.38647,107.34237 0,128.63014 -167.98988,123.34141 -167.98988,123.34141 l 0,-229.66059 c 0,0 8.04511,-0.90556 20.60341,-1.02319 z m -155.61854,182.8262 0,46.60185 -46.60184,0 46.60184,-46.60185 z"
       id="path3803"
       inkscape:connector-curvature="0" />
  </g>
</svg>
